<?xml version="1.0" encoding="UTF-8" ?>
<!DOCTYPE svg PUBLIC "-//W3C//DTD SVG 1.1//EN" "http://www.w3.org/Graphics/SVG/1.1/DTD/svg11.dtd">
<svg width="600pt" height="205pt" viewBox="0 0 600 205" version="1.1" xmlns="http://www.w3.org/2000/svg">
<g id="#00737eff">
<path fill="#00737e" opacity="1.00" d=" M 24.03 0.00 L 230.57 0.00 C 244.09 0.31 256.15 12.30 255.68 25.96 C 255.67 85.64 255.70 145.32 255.59 205.00 L 204.56 205.00 C 204.41 153.84 204.55 102.67 204.50 51.51 C 187.47 51.51 170.43 51.51 153.40 51.51 C 153.39 84.34 153.40 117.17 153.40 150.00 C 153.77 156.89 148.00 163.57 141.02 163.74 C 132.64 163.92 124.26 163.79 115.89 163.80 C 110.82 164.00 105.90 161.02 103.68 156.47 C 101.78 152.95 102.34 148.83 102.26 144.99 C 102.31 113.83 102.27 82.68 102.28 51.52 C 85.27 51.49 68.26 51.52 51.24 51.51 C 51.22 102.67 51.27 153.84 51.22 205.00 L 0.00 205.00 L 0.00 24.02 C 0.71 11.42 11.61 1.03 24.03 0.00 Z" />
<path fill="#00737e" opacity="1.00" d=" M 287.60 158.43 C 302.87 158.42 318.13 158.42 333.40 158.43 C 333.39 173.71 333.42 189.00 333.38 204.29 C 318.13 204.29 302.87 204.29 287.62 204.29 C 287.58 189.00 287.61 173.71 287.60 158.43 Z" />
<path fill="#00737e" opacity="1.00" d=" M 554.18 158.42 C 569.46 158.59 584.72 158.02 600.00 158.09 L 600.00 204.24 C 584.74 204.36 569.47 204.25 554.21 204.30 C 554.15 189.00 554.19 173.71 554.18 158.42 Z" />
</g>
<g id="#303030ff">
<path fill="#303030" opacity="1.00" d=" M 379.11 5.88 C 385.89 5.68 393.60 6.31 398.65 11.40 C 402.80 15.37 403.58 21.47 403.58 26.93 C 403.54 37.49 403.68 48.04 403.50 58.59 C 403.43 64.20 401.25 70.11 396.42 73.31 C 390.72 77.16 383.52 76.88 376.95 76.57 C 371.30 76.16 365.29 73.96 362.04 69.06 C 359.45 65.26 359.07 60.52 359.11 56.06 C 359.07 47.04 359.24 38.01 358.90 28.99 C 358.91 23.23 359.14 16.79 363.20 12.25 C 367.07 7.60 373.32 6.14 379.11 5.88 M 378.38 18.51 C 375.65 19.35 375.54 22.65 375.61 25.01 C 375.75 37.03 375.46 49.05 375.75 61.07 C 376.09 64.90 380.83 65.03 383.71 64.45 C 386.66 63.92 387.19 60.52 387.16 58.03 C 387.17 47.36 387.11 36.69 387.18 26.02 C 387.09 23.97 387.24 21.73 386.16 19.90 C 384.29 17.64 380.94 18.17 378.38 18.51 Z" />
<path fill="#303030" opacity="1.00" d=" M 287.79 7.39 C 295.25 7.26 302.71 7.33 310.16 7.35 C 313.33 24.65 318.11 41.68 320.23 59.16 C 323.21 41.79 327.03 24.58 330.50 7.30 C 338.03 7.36 345.56 7.28 353.09 7.36 C 352.65 17.25 353.18 27.16 352.95 37.06 C 353.42 49.97 352.52 62.88 353.13 75.78 C 348.15 76.02 343.17 76.24 338.20 75.84 C 338.13 59.95 338.41 44.05 338.05 28.17 C 334.21 44.07 331.28 60.19 327.49 76.11 C 322.64 76.18 317.78 76.14 312.94 75.77 C 309.68 59.12 305.53 42.65 302.54 25.94 C 302.40 42.65 302.59 59.35 302.49 76.06 C 297.59 76.17 292.68 76.24 287.80 75.81 C 287.81 53.01 287.82 30.20 287.79 7.39 Z" />
<path fill="#303030" opacity="1.00" d=" M 411.81 7.36 C 417.35 7.30 422.90 7.34 428.44 7.31 C 433.22 21.97 438.09 36.61 442.57 51.36 C 443.05 36.69 442.66 22.02 442.79 7.35 C 447.57 7.31 452.35 7.31 457.13 7.35 C 457.22 30.15 457.05 52.95 457.21 75.75 C 451.55 76.43 445.86 75.75 440.18 75.83 C 435.72 61.22 430.67 46.79 426.47 32.11 C 425.86 46.67 426.34 61.26 426.20 75.82 C 421.40 75.90 416.60 75.90 411.80 75.82 C 411.82 53.00 411.80 30.18 411.81 7.36 Z" />
<path fill="#303030" opacity="1.00" d=" M 460.61 7.28 C 475.29 7.28 489.98 7.28 504.67 7.28 C 504.67 11.30 504.67 15.31 504.65 19.32 C 500.14 19.32 495.63 19.32 491.12 19.32 C 491.44 38.15 490.42 56.98 491.15 75.81 C 485.52 75.82 479.90 76.20 474.28 76.09 C 474.20 57.18 474.25 38.27 474.25 19.36 C 469.70 19.31 465.15 19.32 460.61 19.32 C 460.59 15.31 460.59 11.29 460.61 7.28 Z" />
<path fill="#303030" opacity="1.00" d=" M 513.58 7.32 C 521.01 7.34 528.45 7.29 535.89 7.35 C 540.33 30.22 545.09 53.03 549.68 75.87 C 544.28 75.81 538.90 76.01 533.51 76.14 C 532.62 70.90 531.77 65.65 531.13 60.38 C 526.90 60.31 522.66 60.33 518.43 60.32 C 517.57 65.48 516.69 70.63 516.13 75.83 C 510.75 75.88 505.36 75.83 500.00 76.16 C 500.38 71.90 501.28 67.71 502.22 63.54 C 505.95 44.78 509.80 26.06 513.58 7.32 M 524.89 19.66 C 523.02 29.25 521.83 38.95 520.31 48.60 C 523.32 48.60 526.34 48.60 529.36 48.58 C 527.86 38.94 526.73 29.24 524.89 19.66 Z" />
<path fill="#303030" opacity="1.00" d=" M 554.81 7.36 C 560.30 7.31 565.79 7.32 571.29 7.33 C 576.02 22.01 580.89 36.65 585.45 51.39 C 585.73 36.70 585.51 22.02 585.58 7.34 C 590.38 7.31 595.19 7.31 600.00 7.38 L 600.00 81.18 L 599.97 75.78 C 594.29 76.22 588.59 76.28 582.92 75.80 C 578.41 61.00 573.59 46.28 568.85 31.55 C 568.62 46.42 568.87 61.29 568.71 76.16 C 564.07 76.10 559.44 75.90 554.80 75.79 C 554.81 52.98 554.80 30.17 554.81 7.36 Z" />
<path fill="#303030" opacity="1.00" d=" M 547.30 82.67 C 550.07 82.67 552.84 82.67 555.62 82.67 C 555.63 85.00 555.63 87.34 555.64 89.68 C 552.85 89.68 550.06 89.68 547.27 89.68 C 547.28 87.34 547.28 85.00 547.30 82.67 Z" />
<path fill="#303030" opacity="1.00" d=" M 559.22 82.66 C 561.97 82.67 564.73 82.67 567.49 82.67 C 567.50 85.01 567.50 87.34 567.52 89.67 C 564.73 89.67 561.96 89.68 559.18 89.68 C 559.19 87.34 559.19 85.00 559.22 82.66 Z" />
<path fill="#303030" opacity="1.00" d=" M 475.35 94.54 C 480.55 93.40 486.51 93.01 491.32 95.69 C 495.04 98.48 494.49 103.73 494.72 107.85 C 491.35 107.88 487.99 107.88 484.62 107.89 C 484.23 105.83 485.24 103.05 483.23 101.63 C 482.30 101.57 480.44 101.47 479.52 101.41 C 479.35 103.70 478.63 106.19 479.63 108.37 C 483.72 112.05 488.81 114.43 492.95 118.06 C 496.25 121.00 495.75 125.90 495.50 129.89 C 495.13 134.67 490.84 138.53 486.11 138.70 C 481.02 138.89 475.09 139.66 470.90 136.12 C 467.40 133.25 468.35 128.31 468.14 124.33 C 471.61 124.33 475.09 124.33 478.57 124.32 C 478.80 126.37 478.28 128.69 479.45 130.53 C 480.97 131.99 483.01 130.71 484.78 130.53 C 484.51 128.27 485.61 125.27 483.47 123.69 C 479.48 120.22 474.70 117.78 470.89 114.11 C 467.97 111.22 468.44 106.70 468.70 102.97 C 468.92 99.13 471.36 95.26 475.35 94.54 Z" />
<path fill="#303030" opacity="1.00" d=" M 515.20 94.49 C 524.57 94.51 533.95 94.47 543.33 94.51 C 543.32 97.11 543.32 99.71 543.32 102.32 C 540.37 102.33 537.43 102.33 534.49 102.34 C 534.49 114.37 534.50 126.39 534.48 138.42 C 530.91 138.42 527.33 138.42 523.76 138.41 C 523.76 126.38 523.77 114.35 523.76 102.33 C 520.90 102.33 518.05 102.33 515.20 102.33 C 515.19 99.71 515.19 97.10 515.20 94.49 Z" />
<path fill="#303030" opacity="1.00" d=" M 571.57 94.59 C 581.03 93.92 590.53 94.06 600.00 94.27 L 600.00 94.77 C 599.85 95.04 599.55 95.56 599.39 95.83 C 599.38 98.00 599.68 100.16 599.84 102.32 C 596.95 102.33 594.06 102.33 591.18 102.33 C 591.17 114.35 591.18 126.38 591.17 138.40 C 587.56 138.42 583.95 138.42 580.34 138.43 C 580.31 126.40 580.34 114.37 580.33 102.34 C 577.41 102.33 574.50 102.32 571.59 102.32 C 571.58 99.74 571.58 97.16 571.57 94.59 Z" />
<path fill="#303030" opacity="1.00" d=" M 287.61 94.58 C 291.20 94.58 294.80 94.58 298.39 94.58 C 298.53 106.02 298.17 117.47 298.55 128.89 C 298.55 132.32 304.65 132.35 304.58 128.93 C 304.84 117.49 304.59 106.03 304.69 94.59 C 308.23 94.58 311.78 94.58 315.32 94.59 C 315.31 105.72 315.36 116.86 315.32 127.99 C 315.47 131.94 313.67 136.27 309.78 137.78 C 304.30 139.75 297.90 139.68 292.57 137.29 C 288.71 135.46 287.52 130.94 287.61 127.00 C 287.58 116.20 287.61 105.39 287.61 94.58 Z" />
<path fill="#303030" opacity="1.00" d=" M 322.50 138.42 C 322.49 123.81 322.48 109.19 322.50 94.58 C 326.01 94.58 329.52 94.58 333.04 94.61 C 336.05 103.87 338.86 113.20 342.16 122.36 C 342.23 113.10 342.16 103.84 342.20 94.58 C 345.21 94.58 348.22 94.58 351.23 94.59 C 351.24 109.20 351.24 123.80 351.23 138.40 C 347.67 138.42 344.10 138.42 340.54 138.44 C 337.46 129.06 334.46 119.66 331.60 110.22 C 331.18 119.61 331.50 129.02 331.39 138.42 C 328.43 138.42 325.46 138.42 322.50 138.42 Z" />
<path fill="#303030" opacity="1.00" d=" M 358.42 138.42 C 358.39 123.81 358.39 109.19 358.42 94.58 C 361.90 94.58 365.38 94.58 368.87 94.57 C 369.44 109.18 368.74 123.80 368.87 138.42 C 365.38 138.42 361.90 138.42 358.42 138.42 Z" />
<path fill="#303030" opacity="1.00" d=" M 373.05 94.60 C 376.64 94.58 380.23 94.58 383.82 94.57 C 385.62 105.99 386.60 117.56 388.89 128.89 C 390.35 117.44 391.93 106.01 393.44 94.57 C 397.05 94.58 400.66 94.58 404.28 94.60 C 401.46 109.17 399.03 123.82 396.34 138.42 C 391.31 138.41 386.29 138.41 381.26 138.43 C 378.50 123.83 375.79 109.21 373.05 94.60 Z" />
<path fill="#303030" opacity="1.00" d=" M 408.51 94.49 C 416.09 94.50 423.67 94.47 431.26 94.51 C 431.25 97.14 431.25 99.77 431.26 102.40 C 427.25 102.42 423.26 102.42 419.26 102.42 C 419.25 105.72 419.26 109.03 419.28 112.34 C 423.02 112.33 426.75 112.33 430.50 112.33 C 430.49 114.95 430.48 117.57 430.46 120.19 C 426.72 120.19 422.99 120.19 419.26 120.19 C 419.25 123.65 419.26 127.12 419.26 130.58 C 423.26 130.58 427.26 130.58 431.26 130.60 C 431.25 133.20 431.25 135.80 431.26 138.40 C 423.67 138.44 416.09 138.41 408.51 138.42 C 408.49 123.78 408.49 109.13 408.51 94.49 Z" />
<path fill="#303030" opacity="1.00" d=" M 436.64 94.50 C 442.76 94.61 448.89 94.21 454.99 94.72 C 458.27 94.90 461.64 97.04 462.35 100.40 C 463.34 105.63 463.54 112.46 458.14 115.38 C 459.68 116.40 462.01 116.98 462.44 119.06 C 464.21 125.41 462.10 132.15 464.03 138.48 C 460.85 138.40 457.67 138.41 454.50 138.44 C 452.30 133.17 453.83 127.41 453.12 121.93 C 452.56 118.98 448.78 119.90 446.63 119.46 C 446.57 125.78 446.62 132.10 446.58 138.42 C 443.27 138.42 439.96 138.42 436.65 138.41 C 436.63 123.77 436.64 109.14 436.64 94.50 M 446.59 102.19 C 446.59 105.58 446.59 108.97 446.68 112.36 C 448.59 112.15 450.64 112.31 452.44 111.47 C 454.12 108.73 453.36 105.37 452.64 102.45 C 450.62 102.34 448.61 102.26 446.59 102.19 Z" />
<path fill="#303030" opacity="1.00" d=" M 500.76 94.59 C 504.29 94.58 507.82 94.58 511.35 94.58 C 511.36 109.19 511.36 123.80 511.35 138.42 C 507.82 138.42 504.29 138.42 500.77 138.41 C 500.76 123.80 500.76 109.20 500.76 94.59 Z" />
<path fill="#303030" opacity="1.00" d=" M 541.44 138.42 C 544.51 123.81 547.28 109.15 550.41 94.56 C 555.10 94.59 559.79 94.58 564.48 94.57 C 567.57 109.16 570.45 123.79 573.42 138.41 C 569.93 138.42 566.45 138.42 562.97 138.39 C 562.53 135.06 562.01 131.73 561.51 128.40 C 558.81 128.40 556.12 128.40 553.42 128.39 C 552.88 131.71 552.43 135.03 552.06 138.37 C 548.52 138.43 544.98 138.43 541.44 138.42 M 557.14 102.28 C 556.73 108.53 555.58 114.70 554.63 120.88 C 556.59 120.82 558.56 120.83 560.54 120.92 C 559.38 114.71 558.78 108.40 557.14 102.28 Z" />
<path fill="#303030" opacity="1.00" d=" M 417.63 158.12 C 422.17 157.35 427.35 157.87 430.98 160.97 C 433.50 163.21 433.52 166.88 433.60 169.99 C 433.61 177.66 433.60 185.34 433.61 193.01 C 433.56 196.11 433.43 199.74 430.92 201.95 C 427.19 205.31 421.72 205.09 417.07 204.54 C 412.75 204.08 408.82 200.55 408.70 196.07 C 408.42 188.39 408.71 180.69 408.58 173.01 C 408.66 169.62 408.16 165.98 409.81 162.87 C 411.32 159.99 414.60 158.71 417.63 158.12 M 419.37 164.50 C 416.21 166.02 416.99 170.14 416.82 173.00 C 417.18 181.12 416.10 189.35 417.61 197.39 C 419.87 198.31 422.23 198.28 424.52 197.44 C 425.85 190.70 425.01 183.81 425.25 177.00 C 425.11 173.42 425.71 169.71 424.67 166.23 C 423.95 164.04 421.21 164.04 419.37 164.50 Z" />
<path fill="#303030" opacity="1.00" d=" M 443.25 158.80 C 448.96 158.94 454.69 158.55 460.39 158.97 C 463.64 159.18 466.65 161.61 467.02 164.94 C 467.45 168.30 467.47 171.76 466.98 175.12 C 466.82 177.42 464.70 178.56 463.08 179.82 C 464.82 180.55 467.01 181.34 467.32 183.50 C 467.85 187.99 467.65 192.55 467.50 197.07 C 467.53 200.59 464.43 203.60 460.95 203.70 C 455.04 204.02 449.11 203.72 443.19 203.82 C 443.23 188.81 443.11 173.80 443.25 158.80 M 451.41 165.28 C 451.39 169.07 451.39 172.87 451.41 176.66 C 453.68 176.27 456.74 177.33 458.38 175.29 C 459.43 172.56 459.42 169.40 458.41 166.67 C 456.73 164.61 453.70 165.63 451.41 165.28 M 451.40 183.15 C 451.39 187.91 451.39 192.66 451.42 197.42 C 454.07 197.42 456.75 197.26 459.28 196.38 C 459.44 192.57 459.86 188.71 459.20 184.93 C 457.68 182.20 453.95 183.56 451.40 183.15 Z" />
<path fill="#303030" opacity="1.00" d=" M 353.24 158.80 C 355.93 158.81 358.62 158.81 361.31 158.82 C 361.35 171.48 361.32 184.14 361.33 196.81 C 365.40 196.81 369.48 196.81 373.55 196.81 C 373.58 199.14 373.60 201.47 373.62 203.80 C 366.81 203.84 360.00 203.81 353.19 203.82 C 353.22 188.81 353.13 173.81 353.24 158.80 Z" />
<path fill="#303030" opacity="1.00" d=" M 378.91 159.70 C 379.11 159.51 379.50 159.11 379.69 158.91 C 386.66 158.62 393.66 158.90 400.64 158.81 C 400.66 161.12 400.67 163.44 400.69 165.76 C 396.21 165.76 391.73 165.76 387.26 165.76 C 387.23 169.26 387.23 172.77 387.26 176.28 C 391.43 176.28 395.60 176.28 399.77 176.28 C 399.76 178.58 399.74 180.88 399.72 183.18 C 395.56 183.18 391.40 183.18 387.24 183.18 C 387.24 187.71 387.24 192.23 387.24 196.76 C 391.93 196.76 396.62 196.76 401.32 196.77 C 401.32 199.11 401.32 201.46 401.33 203.81 C 393.82 203.81 386.31 203.86 378.81 203.77 C 378.89 189.08 378.65 174.39 378.91 159.70 Z" />
<path fill="#303030" opacity="1.00" d=" M 476.88 159.63 C 477.07 159.45 477.46 159.09 477.65 158.91 C 484.60 158.61 491.56 158.92 498.52 158.80 C 498.55 161.12 498.57 163.43 498.60 165.76 C 494.15 165.76 489.71 165.76 485.26 165.76 C 485.23 169.26 485.23 172.77 485.26 176.28 C 489.42 176.28 493.60 176.28 497.77 176.28 C 497.76 178.58 497.74 180.88 497.72 183.18 C 493.56 183.18 489.40 183.18 485.24 183.18 C 485.24 187.71 485.23 192.23 485.24 196.76 C 489.93 196.76 494.62 196.76 499.31 196.77 C 499.31 199.11 499.32 201.46 499.32 203.81 C 491.81 203.82 484.30 203.84 476.79 203.79 C 476.86 189.07 476.65 174.34 476.88 159.63 Z" />
<path fill="#303030" opacity="1.00" d=" M 507.33 203.83 C 507.38 188.82 507.22 173.81 507.41 158.80 C 510.72 158.83 514.04 158.65 517.35 158.91 C 518.67 159.72 518.56 161.55 519.08 162.85 C 521.15 172.12 523.83 181.25 525.52 190.60 C 526.24 180.01 525.21 169.40 525.29 158.79 C 527.76 158.80 530.25 158.82 532.73 158.84 C 532.79 173.83 532.74 188.82 532.76 203.82 C 529.30 203.82 525.84 203.82 522.39 203.83 C 519.79 192.80 516.85 181.83 514.67 170.71 C 514.64 181.73 514.73 192.77 515.31 203.78 C 512.64 203.81 509.98 203.82 507.33 203.83 Z" />
</g>
</svg>
